<svg width="320" height="86.6047585744473" viewBox="0 0 320 86.6047585744473" class="css-1j8o68f"><defs id="SvgjsDefs1162"></defs><g id="SvgjsG1163" featurekey="symbolFeature-0" transform="matrix(1.2951018487650032,0,0,1.2951018487650032,-14.755094908460906,-21.453362816451286)" fill="#d62b70"><g xmlns="http://www.w3.org/2000/svg"><path fill="none" d="M87.453,50L74.231,27.099v0.5h-9.178l-7.905,7.906c0.651,1.087,1.032,2.353,1.032,3.709   c0,3.998-3.252,7.25-7.25,7.25c-3.997,0-7.25-3.252-7.25-7.25c0-3.997,3.253-7.25,7.25-7.25c1.557,0,2.997,0.498,4.18,1.337   l8.701-8.702h8.977l-4.062-7.034H45.251v12.641L31.295,44.16c0.602,1.057,0.95,2.274,0.95,3.574c0,3.998-3.253,7.25-7.25,7.25   c-3.998,0-7.25-3.252-7.25-7.25c0-3.997,3.252-7.25,7.25-7.25c1.612,0,3.099,0.536,4.305,1.43l12.951-12.951V17.564H31.273   L12.547,50l9.93,17.198l17.195-17.194h18.623c0.692-3.28,3.608-5.75,7.092-5.75c3.997,0,7.25,3.252,7.25,7.25   c0,3.997-3.253,7.25-7.25,7.25c-3.483,0-6.399-2.471-7.092-5.75H40.914L24.029,69.889l7.244,12.547h13.27v-6.188   c-3.28-0.693-5.75-3.608-5.75-7.092c0-3.998,3.252-7.25,7.25-7.25c3.483,0,6.398,2.471,7.092,5.75h23.948v0.305L87.453,50z"></path><path fill="none" d="M69.637,51.504c0-2.344-1.907-4.25-4.25-4.25c-2.344,0-4.25,1.906-4.25,4.25c0,2.343,1.906,4.25,4.25,4.25   C67.729,55.754,69.637,53.847,69.637,51.504z"></path><path fill="none" d="M47.543,76.248v6.188h21.184l6.801-11.779H53.135C52.544,73.451,50.338,75.658,47.543,76.248z"></path><path fill="none" d="M50.293,69.156c0-2.344-1.907-4.25-4.25-4.25c-2.344,0-4.25,1.906-4.25,4.25s1.906,4.25,4.25,4.25   C48.386,73.406,50.293,71.5,50.293,69.156z"></path><path fill="none" d="M20.745,47.734c0,2.344,1.906,4.25,4.25,4.25c2.343,0,4.25-1.906,4.25-4.25s-1.907-4.25-4.25-4.25   C22.651,43.484,20.745,45.391,20.745,47.734z"></path><path fill="none" d="M50.931,34.964c-2.343,0-4.25,1.907-4.25,4.25c0,2.344,1.907,4.25,4.25,4.25c2.344,0,4.25-1.906,4.25-4.25   C55.181,36.871,53.274,34.964,50.931,34.964z"></path><path d="M74.231,25.1v-0.501h-0.289l-4.639-8.034H30.696L11.393,50l19.304,33.436h38.607l7.378-12.779h0.401v-0.695L88.607,50   L74.231,25.1z M68.727,82.436H47.543v-6.188c2.795-0.59,5.001-2.797,5.592-5.592h22.393L68.727,82.436z M46.043,73.406   c-2.344,0-4.25-1.906-4.25-4.25s1.906-4.25,4.25-4.25c2.343,0,4.25,1.906,4.25,4.25S48.386,73.406,46.043,73.406z M53.135,67.656   c-0.693-3.279-3.608-5.75-7.092-5.75c-3.998,0-7.25,3.252-7.25,7.25c0,3.483,2.47,6.398,5.75,7.092v6.188h-13.27l-7.244-12.547   l16.885-16.885h17.381c0.692,3.279,3.608,5.75,7.092,5.75c3.997,0,7.25-3.253,7.25-7.25c0-3.998-3.253-7.25-7.25-7.25   c-3.483,0-6.399,2.47-7.092,5.75H39.672L22.477,67.198L12.547,50l18.727-32.436h10.978v11.398L29.3,41.914   c-1.206-0.894-2.692-1.43-4.305-1.43c-3.998,0-7.25,3.253-7.25,7.25c0,3.998,3.252,7.25,7.25,7.25c3.997,0,7.25-3.252,7.25-7.25   c0-1.3-0.349-2.518-0.95-3.574l13.956-13.955V17.564h23.476l4.062,7.034h-8.977l-8.701,8.702c-1.183-0.839-2.623-1.337-4.18-1.337   c-3.997,0-7.25,3.253-7.25,7.25c0,3.998,3.253,7.25,7.25,7.25c3.998,0,7.25-3.252,7.25-7.25c0-1.356-0.381-2.622-1.032-3.709   l7.905-7.906h9.178v-0.5L87.453,50l-10.37,17.961v-0.305H53.135z M61.137,51.504c0-2.344,1.906-4.25,4.25-4.25   c2.343,0,4.25,1.906,4.25,4.25c0,2.343-1.907,4.25-4.25,4.25C63.043,55.754,61.137,53.847,61.137,51.504z M29.245,47.734   c0,2.344-1.907,4.25-4.25,4.25c-2.344,0-4.25-1.906-4.25-4.25s1.906-4.25,4.25-4.25C27.338,43.484,29.245,45.391,29.245,47.734z    M55.181,39.214c0,2.344-1.906,4.25-4.25,4.25c-2.343,0-4.25-1.906-4.25-4.25c0-2.343,1.907-4.25,4.25-4.25   C53.274,34.964,55.181,36.871,55.181,39.214z"></path></g></g><g id="SvgjsG1164" featurekey="nameFeature-0" transform="matrix(1.8089725435640094,0,0,1.8089725435640094,118.8422604013989,-2.885672595733169)" fill="#111111"><path d="M0.64 13.52 l0 -2.32 l20.96 0 l0 2.32 l-9.12 0 l0 26.48 l-2.72 0 l0 -26.48 l-9.12 0 z M24.360000000000003 25.64 c-0.04 -8.4 4.68 -15.2 13.28 -15.2 c9 0 13.56 6.76 13.56 15.2 c0 8.28 -4.56 15.12 -13.44 15.12 s-13.4 -6.84 -13.4 -15.12 z M37.800000000000004 38.44 c7.48 0 10.68 -6.08 10.68 -12.8 c0 -8 -4.12 -12.88 -10.76 -12.88 c-7.4 0 -10.64 6.2 -10.64 12.88 c0 6.8 3.2 12.8 10.72 12.8 z M66.44 40 l-9.84 0 l0 -28.8 l9.84 0 c3.2 0 6.2 0.2 8.88 2.16 c3.8 2.76 4.8 8.36 4.8 12.2 c0 3.8 -0.84 8.04 -3.48 10.92 c-2.64 2.96 -6.4 3.52 -10.2 3.52 z M59.32 13.52 l0 24.16 l6.52 0 c2.44 0 4.56 -0.16 6.76 -1.32 c3.84 -1.96 4.8 -6.88 4.8 -10.8 c0 -4.2 -0.92 -8.8 -4.96 -10.96 c-1.72 -0.92 -4.2 -1.08 -6.6 -1.08 l-6.52 0 z M84.36 25.64 c-0.04 -8.4 4.68 -15.2 13.28 -15.2 c9 0 13.56 6.76 13.56 15.2 c0 8.28 -4.56 15.12 -13.44 15.12 s-13.4 -6.84 -13.4 -15.12 z M97.8 38.44 c7.48 0 10.68 -6.08 10.68 -12.8 c0 -8 -4.12 -12.88 -10.76 -12.88 c-7.4 0 -10.64 6.2 -10.64 12.88 c0 6.8 3.2 12.8 10.72 12.8 z"></path></g></svg>